<svg xmlns="http://www.w3.org/2000/svg" viewBox="0 0 24 24" fill="none">
  <path fill="#FFFFFF" fill-opacity="0.92" d="M19.14 12.94c.04-.31.06-.63.06-.94s-.02-.63-.06-.94l2.03-1.58a.49.49 0 0 0 .12-.61l-1.92-3.32a.49.49 0 0 0-.59-.22l-2.39.96a7.2 7.2 0 0 0-1.62-.94l-.36-2.54A.48.48 0 0 0 14 2h-4a.48.48 0 0 0-.48.41l-.36 2.54c-.59.24-1.13.55-1.62.94l-2.39-.96a.49.49 0 0 0-.59.22L2.64 8.47a.49.49 0 0 0 .12.61l2.03 1.58c-.04.31-.06.63-.06.94s.02.63.06.94L2.76 14.52a.49.49 0 0 0-.12.61l1.92 3.32c.12.22.37.3.59.22l2.39-.96c.49.39 1.03.7 1.62.94l.36 2.54c.05.24.24.41.48.41h4c.24 0 .44-.17.48-.41l.36-2.54c.59-.24 1.13-.55 1.62-.94l2.39.96c.22.08.47 0 .59-.22l1.92-3.32a.49.49 0 0 0-.12-.61l-2.03-1.58zM12 15.6A3.6 3.6 0 1 1 12 8.4a3.6 3.6 0 0 1 0 7.2z"/>
</svg>
